<?xml version="1.0" encoding="utf-8"?>
<!-- Generator: Adobe Illustrator 28.3.0, SVG Export Plug-In . SVG Version: 6.00 Build 0)  -->
<svg version="1.1" id="Ebene_1" xmlns="http://www.w3.org/2000/svg" xmlns:xlink="http://www.w3.org/1999/xlink" x="0px" y="0px"
	 viewBox="0 0 521 348.1" style="enable-background:new 0 0 521 348.1;" xml:space="preserve">
<style type="text/css">
	.st0{fill:#252F3E;}
	.st1{fill-rule:evenodd;clip-rule:evenodd;fill:#FF9900;}
</style>
<g id="Amazon_Web_Services_Logo" transform="translate(282.333 1775.439)">
	<path id="Path_515" class="st0" d="M-72.5-1607.3c-0.1,2.3,0.2,4.6,0.8,6.9c0.7,1.9,1.5,3.8,2.5,5.6c0.3,0.5,0.5,1.1,0.5,1.8
		c-0.1,1-0.6,1.8-1.5,2.3l-4.9,3.2c-0.6,0.4-1.3,0.7-2,0.7c-0.9-0.1-1.7-0.4-2.3-1.1c-1-1.1-2-2.3-2.8-3.6c-0.8-1.3-1.5-2.8-2.4-4.6
		c-5.5,6.9-13.9,10.8-22.7,10.7c-6.5,0-11.7-1.9-15.4-5.6s-5.7-8.6-5.7-14.8c0-6.6,2.3-11.9,7-15.9c4.7-4,11-6,18.9-6
		c2.7,0,5.5,0.2,8.2,0.6c2.9,0.4,5.8,1,8.9,1.7v-5.6c0-5.9-1.2-10-3.6-12.3c-2.5-2.4-6.6-3.5-12.6-3.5c-2.8,0-5.6,0.3-8.3,1
		c-2.8,0.7-5.6,1.6-8.3,2.6c-0.9,0.4-1.8,0.7-2.7,1c-0.4,0.1-0.8,0.2-1.2,0.2c-1.1,0-1.6-0.8-1.6-2.4v-3.8c-0.1-0.9,0.1-1.9,0.5-2.7
		c0.6-0.7,1.3-1.3,2.2-1.6c3.1-1.5,6.4-2.7,9.7-3.5c3.9-1,8-1.5,12-1.5c9.2,0,15.9,2.1,20.2,6.2c4.2,4.2,6.4,10.5,6.4,19v25
		L-72.5-1607.3z M-103.8-1595.6c2.7,0,5.4-0.5,7.9-1.4c2.8-1,5.4-2.7,7.3-4.9c1.2-1.4,2.1-3.1,2.6-4.9c0.5-2.2,0.8-4.5,0.8-6.7v-3.2
		c-2.3-0.6-4.7-1-7.1-1.3c-2.4-0.3-4.8-0.5-7.3-0.5c-5.2,0-8.9,1-11.5,3.1c-2.5,2.1-3.8,5-3.8,8.9c0,3.6,0.9,6.3,2.9,8.2
		C-110-1596.5-107.3-1595.6-103.8-1595.6z M-41.8-1587.2c-1,0.1-2.1-0.2-2.9-0.8c-0.8-0.8-1.4-1.9-1.6-3l-18.1-59.6
		c-0.4-1-0.6-2-0.7-3.1c-0.1-0.9,0.5-1.8,1.4-1.9c0.1,0,0.3,0,0.4,0h7.6c1.1-0.1,2.1,0.1,3,0.8c0.8,0.8,1.3,1.9,1.5,3l13,51.1
		l12-51.1c0.2-1.1,0.7-2.2,1.5-3c0.9-0.6,2-0.8,3.1-0.8h6.2c1.1-0.1,2.2,0.2,3.1,0.8c0.8,0.8,1.3,1.9,1.5,3l12.2,51.7l13.3-51.7
		c0.2-1.1,0.8-2.2,1.5-3c0.9-0.6,1.9-0.8,3-0.8h7.2c0.9-0.1,1.8,0.5,1.9,1.5c0,0.2,0,0.3,0,0.5c0,0.4-0.1,0.8-0.2,1.2
		c-0.1,0.7-0.3,1.3-0.5,1.9l-18.6,59.6c-0.2,1.1-0.8,2.2-1.6,3c-0.9,0.6-1.9,0.8-2.9,0.8h-6.6c-1.1,0.1-2.2-0.2-3.1-0.8
		c-0.8-0.8-1.3-1.9-1.5-3.1l-12-49.8l-11.9,49.7c-0.2,1.1-0.7,2.2-1.5,3.1c-0.9,0.6-2,0.9-3.1,0.8H-41.8z M57.3-1585.1
		c-4,0-8-0.5-11.9-1.4c-3.1-0.6-6.1-1.7-8.9-3.1c-1-0.5-1.8-1.2-2.4-2.2c-0.3-0.7-0.5-1.4-0.5-2.2v-3.9c0-1.6,0.6-2.4,1.8-2.4
		c0.5,0,0.9,0.1,1.4,0.2c0.5,0.2,1.2,0.5,1.9,0.8c2.7,1.2,5.6,2.1,8.5,2.7c3,0.6,6.1,0.9,9.2,0.9c4.9,0,8.6-0.8,11.3-2.5
		c2.6-1.5,4.1-4.3,4-7.3c0.1-2-0.7-4-2.1-5.4c-1.4-1.5-4-2.8-7.8-4l-11.2-3.5c-5.6-1.8-9.8-4.4-12.3-7.9c-2.5-3.2-3.8-7.1-3.9-11.2
		c-0.1-3,0.7-5.9,2.1-8.6c1.4-2.5,3.3-4.6,5.6-6.3c2.4-1.8,5.1-3.2,8-4c3.2-0.9,6.4-1.4,9.7-1.3c1.7,0,3.5,0.1,5.2,0.3
		c1.8,0.2,3.4,0.5,5,0.8c1.5,0.4,3,0.8,4.4,1.2c1.1,0.3,2.2,0.8,3.2,1.4c0.9,0.5,1.7,1.1,2.3,1.9c0.5,0.8,0.7,1.6,0.7,2.5v3.6
		c0,1.6-0.6,2.5-1.8,2.5c-1-0.1-2-0.4-2.9-0.9c-4.7-2.1-9.7-3.1-14.8-3c-4.4,0-7.9,0.7-10.3,2.2c-2.4,1.4-3.8,4.1-3.6,6.9
		c0,2.1,0.8,4.1,2.3,5.5c1.5,1.5,4.4,2.9,8.5,4.2l11,3.5c5.6,1.8,9.6,4.2,12,7.4c2.4,3.1,3.6,6.9,3.5,10.8c0,3.1-0.6,6.2-2,8.9
		c-1.4,2.6-3.3,5-5.6,6.8c-2.5,2-5.5,3.4-8.6,4.3C64.8-1585.7,61.1-1585.1,57.3-1585.1L57.3-1585.1z"/>
	<g id="Group_643" transform="translate(1.668 87.584)">
		<path id="Path_516" class="st1" d="M70.2-1635.2c-25.4,18.7-62.3,28.7-94,28.7c-42.4,0.2-83.3-15.4-114.7-43.7
			c-2.4-2.2-0.2-5.1,2.6-3.4c32.7,19,73.1,30.5,114.8,30.5c30.1-0.2,59.8-6.2,87.6-17.9C70.8-1643,74.4-1638.3,70.2-1635.2z"/>
		<path id="Path_517" class="st1" d="M80.8-1647.3c-3.2-4.2-21.4-2-29.7-1c-2.5,0.3-2.9-1.9-0.6-3.5c14.5-10.2,38.3-7.3,41.1-3.9
			c2.8,3.5-0.8,27.3-14.4,38.7c-2.1,1.8-4.1,0.8-3.2-1.5C77.2-1626,84-1643.2,80.8-1647.3z"/>
	</g>
</g>
</svg>
